<svg xmlns="http://www.w3.org/2000/svg" width="64" height="64" viewBox="0 0 64 64"><defs><linearGradient id="g" x1="0" y1="0" x2="0.3" y2="1"><stop offset="0" stop-color="#FFC22E"></stop><stop offset=".5" stop-color="#FF7A1A"></stop><stop offset="1" stop-color="#F0301A"></stop></linearGradient><linearGradient id="bg" x1="0" y1="0" x2="0.35" y2="1"><stop offset="0" stop-color="#FF9A1F"></stop><stop offset=".55" stop-color="#FF5A1A"></stop><stop offset="1" stop-color="#E8321A"></stop></linearGradient><linearGradient id="nv" x1="0" y1="0" x2="0.35" y2="1"><stop offset="0" stop-color="#1E2740"></stop><stop offset="1" stop-color="#131A2B"></stop></linearGradient></defs><rect width="64" height="64" rx="14" fill="url(#bg)"></rect><g transform="translate(9 7) scale(.78)"><g transform="rotate(12 32 36)"><line x1="26.5" y1="32" x2="21.5" y2="8" stroke="#FFFFFF" stroke-width="10.5" stroke-linecap="round"></line><line x1="37.5" y1="32" x2="43.5" y2="6.5" stroke="#FFFFFF" stroke-width="10.5" stroke-linecap="round"></line><path d="M17 37C17 31.5 21 28.5 26 28.5H41C46 28.5 49 32 49 37V45C49 54.5 42 61 33 61C24 61 17 54.5 17 45Z" fill="#FFFFFF"></path><path d="M17.5 37Q28 35.5 34 46" stroke="#FF6A1A" stroke-width="2.6" fill="none" stroke-linecap="round"></path></g></g></svg>